<svg width="172" height="62" viewBox="0 0 172 62" fill="none" xmlns="http://www.w3.org/2000/svg">
<g id="artoon-logo-2 1">
<g id="Group">
<g id="Group_2">
<path id="Vector" d="M77.7941 28.0323C78.1972 27.5764 78.5466 27.049 78.8512 26.468C79.1468 25.878 79.3976 25.2523 79.5678 24.6176C79.747 23.974 79.8455 23.3036 79.8455 22.6332C79.8455 21.4175 79.6037 20.2555 79.102 19.1828C78.6003 18.1012 77.9553 17.1448 77.1759 16.3313C76.3876 15.5089 75.5007 14.8743 74.5243 14.3916C73.5478 13.9178 72.5534 13.6854 71.5591 13.6854H66.8828C65.9153 13.6854 65.118 13.9983 64.473 14.6061C63.828 15.214 63.5234 15.9916 63.5234 16.9392V37.0516C63.5234 37.9902 63.837 38.7679 64.4372 39.3757C65.0464 39.9836 65.8168 40.2964 66.7574 40.2964C67.7249 40.2964 68.5222 39.9836 69.1672 39.3757C69.8122 38.7679 70.1168 37.9902 70.1168 37.0516V31.7151H71.1111L75.1782 38.7947C75.4739 39.2685 75.868 39.626 76.3249 39.8763C76.7728 40.1266 77.2745 40.2607 77.7851 40.2517C78.4749 40.2517 79.102 40.064 79.6484 39.6796C80.1501 39.3489 80.5264 38.9467 80.7682 38.4729C81.0101 38.0081 81.1445 37.4986 81.1355 36.9801C81.1355 36.3365 80.9653 35.7287 80.6339 35.1566L76.4861 29.1139C76.9609 28.8457 77.3909 28.4971 77.7941 28.0323ZM72.9924 24.0903C72.8132 24.421 72.6161 24.6534 72.3922 24.7964C72.1503 24.9663 71.8636 25.0646 71.5591 25.0825H70.1078V20.2912H71.5591C71.8547 20.3091 72.1324 20.4164 72.3922 20.5773C72.6161 20.7203 72.8132 20.9527 72.9924 21.2656C73.1716 21.5874 73.2701 22.0433 73.2701 22.6153C73.2701 23.2679 73.1716 23.7595 72.9924 24.0903Z" fill="#0E7AFF"/>
<path id="Vector_2" d="M42.3011 51.0588C42.104 51.2376 41.8711 51.3091 41.5844 51.3091C41.029 51.3091 40.5542 50.9247 40.1242 50.1381L38.7178 50.9873C39.0492 51.6488 39.4524 52.1315 39.9182 52.4354C40.384 52.7483 40.9305 52.9002 41.5576 52.9002C42.3638 52.9002 43.0088 52.6678 43.5105 52.1941C44.0121 51.7203 44.263 51.1214 44.263 50.3973C44.263 50.0219 44.1824 49.6822 44.048 49.3694C43.9046 49.0476 43.6628 48.7258 43.3313 48.3772C43.1969 48.2431 42.8117 47.9034 42.1667 47.3671C41.4769 46.795 41.0649 46.4017 40.9394 46.2229C40.8409 46.0888 40.7961 45.9458 40.7961 45.8028C40.7961 45.6597 40.8588 45.5257 41.0111 45.4005C41.1544 45.2754 41.3246 45.2217 41.5396 45.2217C41.9965 45.2217 42.4355 45.5346 42.8744 46.1335L44.1196 45.034C43.6538 44.4888 43.2328 44.1223 42.8296 43.9167C42.4444 43.72 42.0234 43.6038 41.5755 43.6038C40.8857 43.6038 40.3213 43.8273 39.8555 44.2653C39.3896 44.6943 39.1567 45.2307 39.1567 45.8385C39.1567 46.2586 39.3001 46.6877 39.5778 47.1078C39.8555 47.5369 40.4736 48.1358 41.4411 48.9224C41.9428 49.3336 42.2742 49.6375 42.4176 49.8431C42.5609 50.0487 42.6415 50.2454 42.6415 50.442C42.5967 50.6923 42.4982 50.889 42.3011 51.0588Z" fill="#0E7AFF"/>
<path id="Vector_3" d="M136.122 13.7122C132.673 13.7122 129.547 15.0531 127.218 17.2431H119.854C117.516 15.0531 114.389 13.7122 110.949 13.7122C103.729 13.7122 97.8701 19.6029 97.8701 26.8524C97.8701 34.1018 103.729 39.9925 110.949 39.9925C113.825 39.9925 116.477 39.0629 118.636 37.4896C119.63 36.7566 119.711 35.2281 118.949 34.2448C118.286 33.3777 117.095 33.4671 116.091 34.1912C114.586 35.2638 112.786 35.8359 110.949 35.827C106.013 35.827 102.018 31.8134 102.018 26.8613C102.018 21.9092 106.013 17.8867 110.949 17.8867C113.843 17.8867 116.405 19.2722 118.044 21.4086H129.045C130.676 19.2633 133.247 17.8777 136.14 17.8777C141.076 17.8777 145.072 21.8913 145.072 26.8524C145.072 31.8134 141.076 35.8181 136.14 35.8181C134.241 35.8181 132.396 35.2102 130.873 34.0929C129.887 33.3599 128.633 33.342 127.863 34.3163C127.182 35.1834 127.307 36.6226 128.293 37.3555C130.478 39.0003 133.193 39.9746 136.131 39.9746C143.352 39.9746 149.21 34.1018 149.219 26.8345C149.192 19.5851 143.343 13.7122 136.122 13.7122Z" fill="#0E7AFF"/>
<path id="Vector_4" d="M149.954 52.6857V46.8933L153.698 52.6857H155.32V43.8541H153.644V49.6733L149.882 43.8541H148.278V52.6857H149.954Z" fill="#0E7AFF"/>
<path id="Vector_5" d="M131.338 44.2563C130.63 44.6675 130.075 45.2307 129.663 45.9369C129.251 46.643 129.054 47.4207 129.054 48.261C129.054 49.5213 129.484 50.6029 130.362 51.5236C131.24 52.4444 132.332 52.9002 133.658 52.9002C134.912 52.9002 135.987 52.4533 136.874 51.5594C137.761 50.6745 138.191 49.575 138.191 48.2967C138.191 46.9916 137.743 45.8832 136.847 44.9893C135.952 44.0954 134.886 43.6306 133.64 43.6306C132.816 43.6306 132.046 43.8452 131.338 44.2563ZM136.516 48.2878C136.516 49.128 136.238 49.8342 135.674 50.4242C135.11 50.9962 134.447 51.2912 133.64 51.2912C132.942 51.2912 132.324 51.0678 131.777 50.6298C131.078 50.0666 130.72 49.2889 130.72 48.3146C130.72 47.4386 130.998 46.7056 131.553 46.1424C132.109 45.5793 132.798 45.2933 133.605 45.2933C134.411 45.2933 135.092 45.5793 135.665 46.1693C136.238 46.7413 136.516 47.4475 136.516 48.2878Z" fill="#0E7AFF"/>
<path id="Vector_6" d="M56.2766 44.2563C55.5689 44.6675 55.0045 45.2307 54.6014 45.9369C54.1893 46.643 53.9922 47.4207 53.9922 48.261C53.9922 49.5213 54.4401 50.6029 55.3001 51.5236C56.178 52.4444 57.2709 52.9002 58.5968 52.9002C59.8509 52.9002 60.9259 52.4533 61.8128 51.5594C62.6997 50.6745 63.1476 49.575 63.1297 48.2967C63.1297 46.9916 62.6818 45.8832 61.7859 44.9893C60.8901 44.0954 59.8241 43.6306 58.5789 43.6306C57.7547 43.6306 56.9843 43.8452 56.2766 44.2563ZM61.4545 48.2878C61.4545 49.128 61.1768 49.8342 60.6214 50.4242C60.0659 51.0141 59.3941 51.2912 58.5878 51.2912C57.8891 51.2912 57.253 51.0678 56.7245 50.6298C56.0257 50.0666 55.6674 49.2889 55.6674 48.3146C55.6674 47.4386 55.9451 46.7056 56.5005 46.1424C57.0559 45.5793 57.7457 45.2933 58.552 45.2933C59.3582 45.2933 60.0391 45.5793 60.6034 46.1693C61.1768 46.7413 61.4545 47.4475 61.4545 48.2878Z" fill="#0E7AFF"/>
<path id="Vector_7" d="M15.7847 34.37C10.0603 30.6335 4.8107 25.3506 4.8107 25.3506C2.10529 31.3576 1.23633 37.4002 1.23633 37.4002C3.23404 38.9914 5.32133 40.0461 7.47133 40.6897C9.02112 39.8942 12.6403 39.331 16.8507 39.331C21.4195 39.331 25.2805 39.9925 26.5884 40.9043C30.1897 40.0372 32.474 38.9377 32.474 38.9198L31.9992 36.5063C14.7276 30.2491 3.5207 16.2866 3.5207 16.2866C9.40633 28.9351 27.2334 37.6058 27.2334 37.6058C14.9515 40.8775 3.85216 35.8985 3.85216 35.8985C4.32695 31.8492 5.84091 28.9172 5.84091 28.9172C10.8486 32.1531 15.7847 34.37 15.7847 34.37Z" fill="#0E7AFF"/>
<path id="Vector_8" d="M142.446 27.0133C142.446 25.6009 141.299 24.4478 139.893 24.4478C138.487 24.4478 137.34 25.6009 137.34 27.0133C137.34 28.4256 138.487 29.5787 139.893 29.5787C141.299 29.5787 142.446 28.4256 142.446 27.0133ZM138.872 27.0133C138.872 26.4501 139.329 25.9942 139.893 25.9942C140.457 25.9942 140.914 26.4501 140.914 27.0222C140.914 27.5853 140.457 28.0412 139.893 28.0412C139.329 28.0323 138.872 27.5764 138.872 27.0133Z" fill="#0E7AFF"/>
<path id="Vector_9" d="M31.444 33.0828C31.444 33.0828 28.8909 18.1727 17.1286 8.58131C17.1286 8.58131 11.243 13.7569 8.38525 18.5124L10.1411 20.2912C10.1411 20.2912 12.3717 15.5 16.9853 11.8172C16.9853 11.8172 24.4565 18.2174 27.7173 28.7385C27.7173 28.7385 22.7813 28.1843 16.6628 24.0724C16.6628 24.0634 20.7209 28.6223 31.444 33.0828Z" fill="#0E7AFF"/>
<path id="Vector_10" d="M19.1799 42.1646L19.3949 42.7993C23.0857 42.6205 25.7911 42.0663 25.7911 41.4138C25.7911 40.6182 21.7957 39.9746 16.8597 39.9746C11.9236 39.9746 7.92822 40.6182 7.92822 41.4138C7.92822 42.0663 10.6247 42.6205 14.3245 42.7993L14.5395 42.1646C11.9684 42.0574 9.88114 41.7624 9.88114 41.4138C9.88114 40.9668 13.3301 40.6182 16.8597 40.6182C20.3893 40.6182 23.8382 40.9758 23.8382 41.4138C23.8203 41.7624 21.7509 42.0484 19.1799 42.1646Z" fill="#0E7AFF"/>
<path id="Vector_11" d="M6.98777 49.2442C5.64402 49.2442 4.94527 49.7091 4.57798 50.2543C4.16589 50.8711 4.62277 51.4968 4.62277 51.4968C4.62277 52.203 10.1053 53.4187 16.8419 53.4187C23.5786 53.4187 29.0701 52.203 29.0701 51.4879C29.0701 51.4879 29.518 50.8711 29.1149 50.2454C28.7476 49.7001 28.0488 49.2353 26.7051 49.2353C24.3132 49.2353 23.9459 50.5225 23.9459 50.5225C23.9459 49.0476 26.3109 48.6006 26.3109 48.6006C26.3109 46.4642 23.5517 47.6352 23.5517 47.6352C22.2617 44.7837 20.3894 46.6698 20.3894 46.6698L18.2394 41.7445C17.908 41.092 15.7759 41.092 15.4355 41.7445L13.2855 46.6698C13.2855 46.6698 11.4132 44.7748 10.1232 47.6352C10.1232 47.6352 7.36402 46.4732 7.36402 48.6006C7.36402 48.6006 9.72902 49.0565 9.72902 50.5225C9.74694 50.5314 9.39756 49.2442 6.98777 49.2442ZM14.4859 47.957L16.0626 43.4518L16.8509 47.2062L17.6392 43.4518L19.2159 47.957C23.1844 47.957 22.7634 48.9224 22.7634 48.9224C20.264 48.0464 19.2159 49.2442 19.2159 49.2442C20.6224 49.2442 20.7926 50.5314 20.7926 50.5314C19.2249 50.004 17.4869 49.8968 16.8509 49.8878C16.2059 49.8968 14.468 49.9951 12.9092 50.5314C12.9092 50.5314 13.0794 49.2442 14.4859 49.2442C14.4859 49.2442 13.4288 48.0375 10.9384 48.9224C10.9384 48.9224 10.5263 47.957 14.4859 47.957Z" fill="#0E7AFF"/>
<path id="Vector_12" d="M53.5622 15.5983C53.2486 14.9011 52.8276 14.4005 52.299 14.1145C51.7705 13.8284 51.1434 13.6854 50.4536 13.6854C49.8086 13.7033 49.1994 13.8999 48.6082 14.2307C48.008 14.5614 47.587 15.0352 47.3451 15.643L39.0855 35.7108C38.8884 36.122 38.7988 36.5779 38.7988 37.0427C38.7988 37.6863 38.978 38.2584 39.3184 38.7679C39.6588 39.2774 40.1515 39.6796 40.7786 39.9478C41.2982 40.1713 41.7909 40.2785 42.2299 40.2785C42.8659 40.2785 43.4392 40.1087 43.9499 39.778C44.4605 39.4472 44.8636 38.9556 45.1234 38.3209L46.9867 33.8426H53.8399L55.7032 38.3388C55.9451 38.9824 56.3482 39.4651 56.8767 39.7958C57.4232 40.1266 58.0055 40.2964 58.6415 40.2964C59.1611 40.2964 59.6359 40.1981 60.048 40.0104C60.684 39.7333 61.1767 39.331 61.5082 38.8304C61.8486 38.312 62.0278 37.731 62.0278 37.1052C62.0278 36.6047 61.9292 36.1577 61.7411 35.7287L53.5622 15.5983ZM49.3697 28.1753L50.4447 25.1003L51.5644 28.1753H49.3697Z" fill="#0E7AFF"/>
<path id="Vector_13" d="M167.539 13.7659C166.571 13.7659 165.765 14.0787 165.129 14.6866C164.484 15.2944 164.179 16.0721 164.179 17.0196V25.6367L157.667 15.3927C157.398 14.91 157.013 14.4988 156.52 14.2128C156.027 13.9268 155.481 13.7837 154.836 13.7837C153.868 13.7837 153.062 14.0966 152.426 14.7044C151.781 15.3123 151.477 16.09 151.477 17.0375V37.0695C151.477 38.0081 151.772 38.7858 152.39 39.3936C152.999 40.0014 153.779 40.3143 154.711 40.3143C155.678 40.3143 156.484 40.0014 157.12 39.3936C157.765 38.7858 158.07 38.0081 158.07 37.0695V28.4077L164.78 39.0629C165.389 39.8942 166.258 40.3143 167.396 40.3143C168.363 40.3143 169.16 40.0014 169.805 39.3936C170.45 38.7858 170.755 38.0081 170.755 37.0695V17.0285C170.755 16.09 170.441 15.3123 169.841 14.6955C169.25 14.0698 168.479 13.7659 167.539 13.7659Z" fill="#0E7AFF"/>
<path id="Vector_14" d="M129.699 27.0133C129.699 28.4256 130.846 29.5787 132.243 29.5787C133.65 29.5787 134.797 28.4256 134.797 27.0133C134.797 25.6009 133.65 24.4478 132.243 24.4478C130.837 24.4389 129.699 25.592 129.699 27.0133ZM133.274 27.0133C133.274 27.5764 132.808 28.0323 132.252 28.0323C131.697 28.0323 131.231 27.5764 131.231 27.0043C131.231 26.4322 131.688 25.9764 132.252 25.9853C132.817 25.9853 133.274 26.4501 133.274 27.0133Z" fill="#0E7AFF"/>
<path id="Vector_15" d="M87.147 43.863V49.128C87.147 50.1828 87.2455 50.9337 87.4426 51.3717C87.6397 51.8186 87.9891 52.1762 88.4549 52.4801C88.9207 52.7751 89.4761 52.927 90.1211 52.927C90.6049 52.927 91.0349 52.8466 91.3932 52.6946C91.7605 52.5427 92.083 52.3103 92.3697 51.9885C92.6474 51.6667 92.8355 51.3359 92.9341 50.9963C93.0326 50.6566 93.0774 50.0309 93.0774 49.1459H93.0863V43.8809H91.4022V49.3783C91.4022 49.9683 91.3574 50.3705 91.2768 50.5851C91.1961 50.7996 91.0439 50.9694 90.8289 51.1035C90.6049 51.2376 90.363 51.3002 90.0674 51.3002C89.7897 51.3002 89.5478 51.2465 89.3597 51.1214C89.1716 50.9963 89.0193 50.8354 88.9386 50.6387C88.858 50.442 88.8132 50.0845 88.8132 49.6018V43.8899L87.147 43.863Z" fill="#0E7AFF"/>
<path id="Vector_16" d="M106.129 52.6857V45.5167H107.724V43.8541H102.868V45.5167H104.436V52.6857H106.129Z" fill="#0E7AFF"/>
<path id="Vector_17" d="M110.922 33.5655C112.15 33.5655 113.153 32.5554 113.153 31.3218V29.3999H114.685C116.127 29.3999 117.301 28.3899 117.301 27.1563C117.301 25.9138 116.127 24.9126 114.685 24.9126H113.153V22.9729C113.153 21.7304 112.159 20.7292 110.922 20.7292C109.695 20.7292 108.692 21.7393 108.692 22.9729V24.8948H107.16C105.717 24.8948 104.544 25.9048 104.544 27.1384C104.544 28.3809 105.717 29.3821 107.16 29.3821H108.692V31.3039C108.692 32.5643 109.695 33.5655 110.922 33.5655Z" fill="#0E7AFF"/>
<path id="Vector_18" d="M118.958 43.8541H117.292V52.6857H118.958V43.8541Z" fill="#0E7AFF"/>
<path id="Vector_19" d="M94.6357 13.6407H83.9932C83.0616 13.6407 82.2732 13.9536 81.673 14.5614C81.0639 15.1693 80.7593 15.9469 80.7593 16.8945C80.7593 17.8688 81.0728 18.6644 81.673 19.308C82.2822 19.9516 83.0526 20.2734 83.9932 20.2734H86.0268V37.0516C86.0268 37.9902 86.3403 38.7679 86.9405 39.3757C87.5497 39.9836 88.3201 40.2964 89.2607 40.2964C90.2282 40.2964 91.0255 39.9836 91.6705 39.3757C92.3155 38.7679 92.6201 37.9902 92.6201 37.0516V20.2555H94.6537C95.5943 20.2555 96.3647 19.9426 96.9739 19.3348C97.583 18.7269 97.8876 17.9493 97.8876 17.0017C97.8876 16.0274 97.5741 15.2318 96.9739 14.5882C96.3468 13.9625 95.5674 13.6407 94.6357 13.6407Z" fill="#0E7AFF"/>
<path id="Vector_20" d="M136.068 20.8454C134.661 20.8454 133.515 21.9986 133.515 23.4109C133.515 24.8232 134.661 25.9764 136.068 25.9764C137.474 25.9764 138.621 24.8232 138.621 23.4109C138.621 21.9986 137.474 20.8454 136.068 20.8454ZM136.068 24.4389C135.503 24.4389 135.047 23.983 135.047 23.4109C135.047 22.8388 135.512 22.3919 136.068 22.3919C136.632 22.3919 137.089 22.8567 137.08 23.4198C137.089 23.974 136.632 24.4389 136.068 24.4389Z" fill="#0E7AFF"/>
<path id="Vector_21" d="M136.068 28.0323C134.661 28.0323 133.515 29.1854 133.515 30.5977C133.515 32.0101 134.661 33.1632 136.068 33.1632C137.474 33.1632 138.621 32.0101 138.621 30.5977C138.621 29.1854 137.474 28.0323 136.068 28.0323ZM136.068 31.6257C135.503 31.6257 135.047 31.1698 135.047 30.5977C135.047 30.0257 135.512 29.5787 136.068 29.5787C136.632 29.5787 137.089 30.0346 137.08 30.6067C137.089 31.1698 136.632 31.6257 136.068 31.6257Z" fill="#0E7AFF"/>
<path id="Vector_22" d="M168.596 51.0588C168.399 51.2376 168.166 51.3091 167.879 51.3091C167.333 51.3091 166.849 50.9247 166.419 50.1381L165.013 50.9873C165.344 51.6488 165.747 52.1315 166.213 52.4354C166.679 52.7393 167.225 52.9002 167.852 52.9002C168.659 52.9002 169.304 52.6678 169.805 52.1941C170.307 51.7203 170.558 51.1214 170.558 50.3974C170.558 50.0219 170.477 49.6822 170.343 49.3694C170.2 49.0476 169.958 48.7258 169.626 48.3772C169.492 48.2431 169.107 47.9034 168.462 47.3671C167.772 46.795 167.36 46.4017 167.234 46.2229C167.136 46.0888 167.091 45.9458 167.091 45.8028C167.091 45.6598 167.154 45.5257 167.306 45.4005C167.449 45.2754 167.629 45.2217 167.835 45.2217C168.291 45.2217 168.73 45.5346 169.169 46.1335L170.388 45.0519C169.922 44.5066 169.501 44.1401 169.098 43.9345C168.712 43.7379 168.291 43.6217 167.844 43.6217C167.154 43.6217 166.589 43.8452 166.124 44.2832C165.658 44.7122 165.425 45.2486 165.425 45.8564C165.425 46.2765 165.568 46.7056 165.846 47.1257C166.124 47.5548 166.742 48.1537 167.709 48.9403C168.211 49.3515 168.533 49.6554 168.686 49.861C168.838 50.0666 168.91 50.2633 168.91 50.4599C168.883 50.6923 168.784 50.889 168.596 51.0588Z" fill="#0E7AFF"/>
<path id="Vector_23" d="M73.1987 43.8541V52.6857H77.3196V51.0767H74.8739V43.8541H73.1987Z" fill="#0E7AFF"/>
</g>
</g>
</g>
</svg>
